<svg xmlns="http://www.w3.org/2000/svg" viewBox="0 0 1600 900" width="1600" height="900" role="img">
  <rect width="1600" height="900" fill="#0D1323"/>
  <circle cx="639.3" cy="145.6" r="1.47" fill="#F5F0E6" opacity="0.37"/>
  <circle cx="1589.8" cy="752.1" r="2.84" fill="#F5F0E6" opacity="0.7"/>
  <circle cx="1420.3" cy="506" r="3.84" fill="#F5F0E6" opacity="0.71"/>
  <circle cx="358.5" cy="714" r="2.58" fill="#F5F0E6" opacity="0.67"/>
  <circle cx="207.2" cy="177.7" r="1.53" fill="#F5F0E6" opacity="0.66"/>
  <circle cx="146.8" cy="755.1" r="3.62" fill="#F5F0E6" opacity="0.68"/>
  <circle cx="696.7" cy="328.7" r="2.44" fill="#F5F0E6" opacity="0.49"/>
  <circle cx="131" cy="663.7" r="1.92" fill="#F5F0E6" opacity="0.49"/>
  <circle cx="306.7" cy="447.9" r="3.17" fill="#F5F0E6" opacity="0.42"/>
  <circle cx="150.3" cy="373.5" r="2.24" fill="#F5F0E6" opacity="0.68"/>
  <circle cx="82.2" cy="415.2" r="1.37" fill="#F5F0E6" opacity="0.26"/>
  <circle cx="232.3" cy="403.4" r="1.48" fill="#F5F0E6" opacity="0.53"/>
  <circle cx="173.4" cy="387.5" r="1.14" fill="#F5F0E6" opacity="0.73"/>
  <circle cx="1413.7" cy="537.1" r="1.45" fill="#F5F0E6" opacity="0.57"/>
  <circle cx="1528.6" cy="811.6" r="1.83" fill="#F5F0E6" opacity="0.67"/>
  <circle cx="141.4" cy="535.5" r="2.36" fill="#F5F0E6" opacity="0.53"/>
  <circle cx="777.4" cy="833.9" r="1.06" fill="#F5F0E6" opacity="0.65"/>
  <circle cx="245.7" cy="236.5" r="1.51" fill="#F5F0E6" opacity="0.59"/>
  <circle cx="97.6" cy="501.3" r="1.12" fill="#F5F0E6" opacity="0.69"/>
  <circle cx="249.7" cy="0.8" r="2.26" fill="#F5F0E6" opacity="0.29"/>
  <circle cx="476.7" cy="747.7" r="2.74" fill="#F5F0E6" opacity="0.69"/>
  <circle cx="6.2" cy="656.3" r="2.17" fill="#F5F0E6" opacity="0.59"/>
  <circle cx="780.8" cy="154.6" r="1.84" fill="#F5F0E6" opacity="0.48"/>
  <circle cx="1322.9" cy="507" r="2.96" fill="#F5F0E6" opacity="0.39"/>
  <circle cx="389.4" cy="791.3" r="3.04" fill="#F5F0E6" opacity="0.6"/>
  <circle cx="1191.4" cy="194.4" r="3.59" fill="#F5F0E6" opacity="0.33"/>
  <circle cx="721" cy="308.5" r="1.08" fill="#F5F0E6" opacity="0.32"/>
  <circle cx="1511.2" cy="522.9" r="1.31" fill="#F5F0E6" opacity="0.62"/>
  <circle cx="753.2" cy="674.6" r="1.84" fill="#F5F0E6" opacity="0.52"/>
  <circle cx="572" cy="203.7" r="1.8" fill="#F5F0E6" opacity="0.59"/>
  <circle cx="68.2" cy="583.4" r="3.69" fill="#F5F0E6" opacity="0.47"/>
  <circle cx="1482.7" cy="493.9" r="0.97" fill="#F5F0E6" opacity="0.62"/>
  <circle cx="524.3" cy="735.4" r="2.61" fill="#F5F0E6" opacity="0.34"/>
  <circle cx="875.1" cy="750" r="3.96" fill="#F5F0E6" opacity="0.38"/>
  <circle cx="370.9" cy="900" r="1.52" fill="#F5F0E6" opacity="0.65"/>
  <circle cx="1362.8" cy="320.4" r="2.51" fill="#F5F0E6" opacity="0.52"/>
  <circle cx="424.8" cy="791.9" r="1.52" fill="#F5F0E6" opacity="0.64"/>
  <circle cx="1518.6" cy="41.6" r="1.38" fill="#F5F0E6" opacity="0.58"/>
  <circle cx="702.1" cy="69.8" r="3.95" fill="#F5F0E6" opacity="0.69"/>
  <circle cx="2.4" cy="189.6" r="3.05" fill="#F5F0E6" opacity="0.71"/>
  <circle cx="401.3" cy="266.7" r="3.68" fill="#F5F0E6" opacity="0.28"/>
  <circle cx="391.9" cy="563.4" r="3.7" fill="#F5F0E6" opacity="0.61"/>
  <circle cx="1477.4" cy="303.3" r="2.73" fill="#F5F0E6" opacity="0.73"/>
  <circle cx="283.7" cy="753.5" r="4.1" fill="#F5F0E6" opacity="0.3"/>
  <circle cx="963.8" cy="345.6" r="3.18" fill="#F5F0E6" opacity="0.74"/>
  <circle cx="805.5" cy="19.9" r="2.91" fill="#F5F0E6" opacity="0.51"/>
  <circle cx="616" cy="555" r="3.95" fill="#F5F0E6" opacity="0.45"/>
  <circle cx="1118.1" cy="732.3" r="3.99" fill="#F5F0E6" opacity="0.29"/>
  <circle cx="815.6" cy="172.1" r="1.87" fill="#F5F0E6" opacity="0.25"/>
  <circle cx="1137.5" cy="630.5" r="1.18" fill="#F5F0E6" opacity="0.73"/>
  <circle cx="762.7" cy="146.6" r="2.8" fill="#F5F0E6" opacity="0.46"/>
  <circle cx="677.6" cy="810.5" r="1.23" fill="#F5F0E6" opacity="0.67"/>
  <circle cx="845.1" cy="530.3" r="4.02" fill="#F5F0E6" opacity="0.34"/>
  <circle cx="1108.3" cy="738.1" r="3.38" fill="#F5F0E6" opacity="0.56"/>
  <circle cx="427.5" cy="222.1" r="2.07" fill="#F5F0E6" opacity="0.71"/>
  <path d="M 592 774 V 352 a 208 208 0 0 1 416 0 V 774" fill="none" stroke="#C09A54" stroke-width="4" opacity="0.85"/>
  <path d="M 352 340 Q 355.6 356.4 372 360 Q 355.6 363.6 352 380 Q 348.4 363.6 332 360 Q 348.4 356.4 352 340 Z" fill="#D5B875"/>
  <path d="M 1248 299 Q 1250.88 312.12 1264 315 Q 1250.88 317.88 1248 331 Q 1245.12 317.88 1232 315 Q 1245.12 312.12 1248 299 Z" fill="#D5B875"/>
</svg>
