<svg xmlns="http://www.w3.org/2000/svg" viewBox="0 0 800 1000" width="800" height="1000" role="img">
  <rect width="800" height="1000" fill="#0D1323"/>
  <circle cx="403.1" cy="707.1" r="1.21" fill="#F5F0E6" opacity="0.6"/>
  <circle cx="34.2" cy="330.3" r="2.59" fill="#F5F0E6" opacity="0.27"/>
  <circle cx="58.1" cy="438.6" r="3.09" fill="#F5F0E6" opacity="0.48"/>
  <circle cx="668.1" cy="164.5" r="3.96" fill="#F5F0E6" opacity="0.66"/>
  <circle cx="601.7" cy="220.6" r="3.37" fill="#F5F0E6" opacity="0.59"/>
  <circle cx="630.8" cy="538.2" r="3.47" fill="#F5F0E6" opacity="0.69"/>
  <circle cx="57.1" cy="856.9" r="0.95" fill="#F5F0E6" opacity="0.38"/>
  <circle cx="629.8" cy="283.8" r="1.53" fill="#F5F0E6" opacity="0.25"/>
  <circle cx="797.3" cy="590.2" r="1.39" fill="#F5F0E6" opacity="0.29"/>
  <circle cx="686.5" cy="129.7" r="2.24" fill="#F5F0E6" opacity="0.3"/>
  <circle cx="283" cy="670.4" r="1.35" fill="#F5F0E6" opacity="0.55"/>
  <circle cx="522.4" cy="382.9" r="3.32" fill="#F5F0E6" opacity="0.67"/>
  <circle cx="173.4" cy="991.8" r="1.81" fill="#F5F0E6" opacity="0.64"/>
  <circle cx="182" cy="806.1" r="1.49" fill="#F5F0E6" opacity="0.41"/>
  <circle cx="650.3" cy="838.8" r="2.28" fill="#F5F0E6" opacity="0.5"/>
  <circle cx="549.7" cy="698.3" r="1.57" fill="#F5F0E6" opacity="0.45"/>
  <circle cx="193" cy="843.8" r="1.47" fill="#F5F0E6" opacity="0.45"/>
  <circle cx="176.8" cy="911.5" r="2.93" fill="#F5F0E6" opacity="0.5"/>
  <circle cx="60.2" cy="225.1" r="3.8" fill="#F5F0E6" opacity="0.26"/>
  <circle cx="587.8" cy="29.4" r="3.22" fill="#F5F0E6" opacity="0.37"/>
  <circle cx="29.6" cy="898" r="2.89" fill="#F5F0E6" opacity="0.62"/>
  <circle cx="418.5" cy="288.7" r="2.91" fill="#F5F0E6" opacity="0.74"/>
  <circle cx="85.5" cy="617.9" r="3.56" fill="#F5F0E6" opacity="0.63"/>
  <circle cx="116.1" cy="813.7" r="1.33" fill="#F5F0E6" opacity="0.47"/>
  <circle cx="0" cy="239" r="3.17" fill="#F5F0E6" opacity="0.28"/>
  <circle cx="769.4" cy="573.4" r="3.45" fill="#F5F0E6" opacity="0.35"/>
  <circle cx="162.7" cy="197.9" r="3.43" fill="#F5F0E6" opacity="0.65"/>
  <circle cx="65.3" cy="724.6" r="1.99" fill="#F5F0E6" opacity="0.56"/>
  <circle cx="448.1" cy="201.8" r="1.18" fill="#F5F0E6" opacity="0.51"/>
  <circle cx="445.3" cy="955.7" r="3.13" fill="#F5F0E6" opacity="0.41"/>
  <circle cx="770" cy="154.8" r="3.86" fill="#F5F0E6" opacity="0.62"/>
  <circle cx="411.4" cy="130.1" r="2" fill="#F5F0E6" opacity="0.65"/>
  <circle cx="571" cy="130" r="1.5" fill="#F5F0E6" opacity="0.53"/>
  <circle cx="42.1" cy="82.6" r="2.6" fill="#F5F0E6" opacity="0.29"/>
  <circle cx="369.9" cy="262.1" r="3.08" fill="#F5F0E6" opacity="0.47"/>
  <circle cx="175.2" cy="254.6" r="4.02" fill="#F5F0E6" opacity="0.55"/>
  <circle cx="775.9" cy="493" r="3.28" fill="#F5F0E6" opacity="0.6"/>
  <circle cx="375.9" cy="110.1" r="4.06" fill="#F5F0E6" opacity="0.7"/>
  <circle cx="663.2" cy="205.7" r="3.49" fill="#F5F0E6" opacity="0.55"/>
  <circle cx="652.5" cy="257.1" r="2.85" fill="#F5F0E6" opacity="0.73"/>
  <circle cx="128.5" cy="634.9" r="2.1" fill="#F5F0E6" opacity="0.64"/>
  <circle cx="356.3" cy="669.8" r="2.84" fill="#F5F0E6" opacity="0.47"/>
  <path d="M 175.99999999999997 820 V 424 a 224.00000000000003 224.00000000000003 0 0 1 448.00000000000006 0 V 820" fill="none" stroke="#C09A54" stroke-width="5" opacity="0.85"/>
</svg>
