<svg xmlns="http://www.w3.org/2000/svg" viewBox="0 0 800 1000" width="800" height="1000" role="img">
  <rect width="800" height="1000" fill="#0D1323"/>
  <circle cx="382.3" cy="183.7" r="1.82" fill="#F5F0E6" opacity="0.34"/>
  <circle cx="792.8" cy="204.8" r="3.2" fill="#F5F0E6" opacity="0.46"/>
  <circle cx="776.8" cy="987.3" r="1.42" fill="#F5F0E6" opacity="0.53"/>
  <circle cx="780.9" cy="326" r="2.56" fill="#F5F0E6" opacity="0.63"/>
  <circle cx="571.2" cy="543.8" r="2.83" fill="#F5F0E6" opacity="0.67"/>
  <circle cx="209.9" cy="247.8" r="1.69" fill="#F5F0E6" opacity="0.32"/>
  <circle cx="751.3" cy="635.8" r="3.23" fill="#F5F0E6" opacity="0.36"/>
  <circle cx="576.2" cy="514.9" r="1.69" fill="#F5F0E6" opacity="0.61"/>
  <circle cx="362.7" cy="83.5" r="3.06" fill="#F5F0E6" opacity="0.54"/>
  <circle cx="788.2" cy="739.3" r="2.18" fill="#F5F0E6" opacity="0.66"/>
  <circle cx="439.7" cy="103.7" r="2.8" fill="#F5F0E6" opacity="0.44"/>
  <circle cx="161.5" cy="200.4" r="3.47" fill="#F5F0E6" opacity="0.34"/>
  <circle cx="683.8" cy="392.5" r="1.26" fill="#F5F0E6" opacity="0.59"/>
  <circle cx="397.1" cy="556.3" r="2.08" fill="#F5F0E6" opacity="0.69"/>
  <circle cx="228" cy="103.4" r="1.15" fill="#F5F0E6" opacity="0.63"/>
  <circle cx="708.5" cy="70.2" r="2.17" fill="#F5F0E6" opacity="0.4"/>
  <circle cx="141.2" cy="863" r="3.64" fill="#F5F0E6" opacity="0.61"/>
  <circle cx="669.7" cy="424.3" r="3.13" fill="#F5F0E6" opacity="0.34"/>
  <circle cx="332.5" cy="265" r="1.02" fill="#F5F0E6" opacity="0.54"/>
  <circle cx="166.7" cy="634.6" r="2.79" fill="#F5F0E6" opacity="0.71"/>
  <circle cx="730" cy="398.7" r="2.38" fill="#F5F0E6" opacity="0.44"/>
  <circle cx="143.5" cy="675.5" r="1.84" fill="#F5F0E6" opacity="0.71"/>
  <circle cx="590.6" cy="958.5" r="1.6" fill="#F5F0E6" opacity="0.48"/>
  <circle cx="31.5" cy="349.7" r="3.5" fill="#F5F0E6" opacity="0.31"/>
  <circle cx="681.7" cy="393.8" r="3.35" fill="#F5F0E6" opacity="0.33"/>
  <circle cx="591.9" cy="196.1" r="2.24" fill="#F5F0E6" opacity="0.66"/>
  <circle cx="714.9" cy="547.3" r="2.18" fill="#F5F0E6" opacity="0.33"/>
  <circle cx="402.7" cy="159.1" r="4.09" fill="#F5F0E6" opacity="0.38"/>
  <circle cx="284.6" cy="683.8" r="3.76" fill="#F5F0E6" opacity="0.51"/>
  <circle cx="676.6" cy="370.9" r="0.97" fill="#F5F0E6" opacity="0.41"/>
  <circle cx="610.1" cy="108.9" r="1.86" fill="#F5F0E6" opacity="0.71"/>
  <circle cx="444.4" cy="614.6" r="2.75" fill="#F5F0E6" opacity="0.63"/>
  <circle cx="257.1" cy="27.9" r="4.08" fill="#F5F0E6" opacity="0.41"/>
  <circle cx="301.3" cy="212.6" r="3.22" fill="#F5F0E6" opacity="0.52"/>
  <circle cx="202.9" cy="368.3" r="1.8" fill="#F5F0E6" opacity="0.37"/>
  <circle cx="48.3" cy="959" r="2.27" fill="#F5F0E6" opacity="0.27"/>
  <circle cx="747.7" cy="995.1" r="2.51" fill="#F5F0E6" opacity="0.42"/>
  <circle cx="402.9" cy="930.5" r="2.66" fill="#F5F0E6" opacity="0.74"/>
  <circle cx="797.1" cy="220.2" r="1.38" fill="#F5F0E6" opacity="0.74"/>
  <circle cx="343.9" cy="304.3" r="3" fill="#F5F0E6" opacity="0.34"/>
  <circle cx="286.9" cy="650.9" r="1.08" fill="#F5F0E6" opacity="0.51"/>
  <circle cx="738.7" cy="609.2" r="2.26" fill="#F5F0E6" opacity="0.71"/>
  <circle cx="400" cy="420" r="120" fill="#C09A54" opacity="0.9"/>
  <circle cx="440.8" cy="396" r="110.4" fill="#0D1323"/>
  <path d="M 560 642 Q 563.24 656.76 578 660 Q 563.24 663.24 560 678 Q 556.76 663.24 542 660 Q 556.76 656.76 560 642 Z" fill="#D5B875"/>
</svg>
