<svg xmlns="http://www.w3.org/2000/svg" viewBox="0 0 800 1000" width="800" height="1000" role="img">
  <rect width="800" height="1000" fill="#F7F3EA"/>
  <path d="M 176 740 V 420 a 224.00000000000003 224.00000000000003 0 0 1 448.00000000000006 0 V 740" fill="none" stroke="#697A5D" stroke-width="3.5" opacity="0.6"/>
  <g transform="rotate(-80 176 740)">
    <path d="M 176 740 q 85.5 -53.2 190 -64.60000000000001" fill="none" stroke="#697A5D" stroke-width="2.66" stroke-linecap="round"/>
    <ellipse cx="199.8" cy="711.8" rx="13.4" ry="9.7" fill="#8A9A7B" opacity="0.88" transform="rotate(-34 199.8 711.8)"/>
    <ellipse cx="199.8" cy="742.7" rx="13.4" ry="9.7" fill="#8A9A7B" opacity="0.68" transform="rotate(34 199.8 742.7)"/>
    <ellipse cx="223.5" cy="703.5" rx="12.6" ry="9.1" fill="#8A9A7B" opacity="0.88" transform="rotate(-34 223.5 703.5)"/>
    <ellipse cx="223.5" cy="732.6" rx="12.6" ry="9.1" fill="#8A9A7B" opacity="0.68" transform="rotate(34 223.5 732.6)"/>
    <ellipse cx="247.3" cy="696.3" rx="11.8" ry="8.5" fill="#8A9A7B" opacity="0.88" transform="rotate(-34 247.3 696.3)"/>
    <ellipse cx="247.3" cy="723.6" rx="11.8" ry="8.5" fill="#8A9A7B" opacity="0.68" transform="rotate(34 247.3 723.6)"/>
    <ellipse cx="271.0" cy="689.7" rx="11.0" ry="8.0" fill="#8A9A7B" opacity="0.88" transform="rotate(-34 271.0 689.7)"/>
    <ellipse cx="271.0" cy="715.1" rx="11.0" ry="8.0" fill="#8A9A7B" opacity="0.68" transform="rotate(34 271.0 715.1)"/>
    <ellipse cx="294.8" cy="683.4" rx="10.2" ry="7.4" fill="#8A9A7B" opacity="0.88" transform="rotate(-34 294.8 683.4)"/>
    <ellipse cx="294.8" cy="707.0" rx="10.2" ry="7.4" fill="#8A9A7B" opacity="0.68" transform="rotate(34 294.8 707.0)"/>
    <ellipse cx="318.5" cy="677.5" rx="9.4" ry="6.8" fill="#8A9A7B" opacity="0.88" transform="rotate(-34 318.5 677.5)"/>
    <ellipse cx="318.5" cy="699.2" rx="9.4" ry="6.8" fill="#8A9A7B" opacity="0.68" transform="rotate(34 318.5 699.2)"/>
    <ellipse cx="342.3" cy="671.9" rx="8.6" ry="6.2" fill="#8A9A7B" opacity="0.88" transform="rotate(-34 342.3 671.9)"/>
    <ellipse cx="342.3" cy="691.7" rx="8.6" ry="6.2" fill="#8A9A7B" opacity="0.68" transform="rotate(34 342.3 691.7)"/>
  </g>
</svg>
