<svg xmlns="http://www.w3.org/2000/svg" viewBox="0 0 800 1000" width="800" height="1000" role="img">
  <rect width="800" height="1000" fill="#FCFAF5"/>
  <g transform="rotate(-8 400 500)">
    <path d="M 400 500 l 230 -27.599999999999998" fill="none" stroke="#697A5D" stroke-width="2.4" stroke-linecap="round"/>
    <path d="M 432.9 496.1 q 16.510714285714286 -24.76607142857143 33.02142857142857 -4.953214285714286 q -16.510714285714286 9.906428571428572 -33.02142857142857 4.953214285714286 z" fill="#8A9A7B" opacity="0.85"/>
    <path d="M 432.9 496.1 q 16.510714285714286 24.76607142857143 33.02142857142857 4.953214285714286 q -16.510714285714286 -9.906428571428572 -33.02142857142857 -4.953214285714286 z" fill="#8A9A7B" opacity="0.62"/>
    <path d="M 465.7 492.1 q 15.77142857142857 -23.657142857142855 31.54285714285714 -4.731428571428571 q -15.77142857142857 9.462857142857143 -31.54285714285714 4.731428571428571 z" fill="#8A9A7B" opacity="0.85"/>
    <path d="M 465.7 492.1 q 15.77142857142857 23.657142857142855 31.54285714285714 4.731428571428571 q -15.77142857142857 -9.462857142857143 -31.54285714285714 -4.731428571428571 z" fill="#8A9A7B" opacity="0.62"/>
    <path d="M 498.6 488.2 q 15.032142857142857 -22.548214285714284 30.064285714285713 -4.509642857142857 q -15.032142857142857 9.019285714285713 -30.064285714285713 4.509642857142857 z" fill="#8A9A7B" opacity="0.85"/>
    <path d="M 498.6 488.2 q 15.032142857142857 22.548214285714284 30.064285714285713 4.509642857142857 q -15.032142857142857 -9.019285714285713 -30.064285714285713 -4.509642857142857 z" fill="#8A9A7B" opacity="0.62"/>
    <path d="M 531.4 484.2 q 14.292857142857144 -21.439285714285717 28.58571428571429 -4.287857142857143 q -14.292857142857144 8.575714285714286 -28.58571428571429 4.287857142857143 z" fill="#8A9A7B" opacity="0.85"/>
    <path d="M 531.4 484.2 q 14.292857142857144 21.439285714285717 28.58571428571429 4.287857142857143 q -14.292857142857144 -8.575714285714286 -28.58571428571429 -4.287857142857143 z" fill="#8A9A7B" opacity="0.62"/>
    <path d="M 564.3 480.3 q 13.553571428571429 -20.330357142857142 27.107142857142858 -4.066071428571428 q -13.553571428571429 8.132142857142856 -27.107142857142858 4.066071428571428 z" fill="#8A9A7B" opacity="0.85"/>
    <path d="M 564.3 480.3 q 13.553571428571429 20.330357142857142 27.107142857142858 4.066071428571428 q -13.553571428571429 -8.132142857142856 -27.107142857142858 -4.066071428571428 z" fill="#8A9A7B" opacity="0.62"/>
    <path d="M 597.1 476.3 q 12.814285714285715 -19.22142857142857 25.62857142857143 -3.8442857142857143 q -12.814285714285715 7.688571428571429 -25.62857142857143 3.8442857142857143 z" fill="#8A9A7B" opacity="0.85"/>
    <path d="M 597.1 476.3 q 12.814285714285715 19.22142857142857 25.62857142857143 3.8442857142857143 q -12.814285714285715 -7.688571428571429 -25.62857142857143 -3.8442857142857143 z" fill="#8A9A7B" opacity="0.62"/>
  </g>
  <g transform="rotate(8 400 500)">
    <path d="M 400 500 l -230 -27.599999999999998" fill="none" stroke="#697A5D" stroke-width="2.4" stroke-linecap="round"/>
    <path d="M 367.1 496.1 q -16.510714285714286 -24.76607142857143 -33.02142857142857 -4.953214285714286 q 16.510714285714286 9.906428571428572 33.02142857142857 4.953214285714286 z" fill="#8A9A7B" opacity="0.85"/>
    <path d="M 367.1 496.1 q -16.510714285714286 24.76607142857143 -33.02142857142857 4.953214285714286 q 16.510714285714286 -9.906428571428572 33.02142857142857 -4.953214285714286 z" fill="#8A9A7B" opacity="0.62"/>
    <path d="M 334.3 492.1 q -15.77142857142857 -23.657142857142855 -31.54285714285714 -4.731428571428571 q 15.77142857142857 9.462857142857143 31.54285714285714 4.731428571428571 z" fill="#8A9A7B" opacity="0.85"/>
    <path d="M 334.3 492.1 q -15.77142857142857 23.657142857142855 -31.54285714285714 4.731428571428571 q 15.77142857142857 -9.462857142857143 31.54285714285714 -4.731428571428571 z" fill="#8A9A7B" opacity="0.62"/>
    <path d="M 301.4 488.2 q -15.032142857142857 -22.548214285714284 -30.064285714285713 -4.509642857142857 q 15.032142857142857 9.019285714285713 30.064285714285713 4.509642857142857 z" fill="#8A9A7B" opacity="0.85"/>
    <path d="M 301.4 488.2 q -15.032142857142857 22.548214285714284 -30.064285714285713 4.509642857142857 q 15.032142857142857 -9.019285714285713 30.064285714285713 -4.509642857142857 z" fill="#8A9A7B" opacity="0.62"/>
    <path d="M 268.6 484.2 q -14.292857142857144 -21.439285714285717 -28.58571428571429 -4.287857142857143 q 14.292857142857144 8.575714285714286 28.58571428571429 4.287857142857143 z" fill="#8A9A7B" opacity="0.85"/>
    <path d="M 268.6 484.2 q -14.292857142857144 21.439285714285717 -28.58571428571429 4.287857142857143 q 14.292857142857144 -8.575714285714286 28.58571428571429 -4.287857142857143 z" fill="#8A9A7B" opacity="0.62"/>
    <path d="M 235.7 480.3 q -13.553571428571429 -20.330357142857142 -27.107142857142858 -4.066071428571428 q 13.553571428571429 8.132142857142856 27.107142857142858 4.066071428571428 z" fill="#8A9A7B" opacity="0.85"/>
    <path d="M 235.7 480.3 q -13.553571428571429 20.330357142857142 -27.107142857142858 4.066071428571428 q 13.553571428571429 -8.132142857142856 27.107142857142858 -4.066071428571428 z" fill="#8A9A7B" opacity="0.62"/>
    <path d="M 202.9 476.3 q -12.814285714285715 -19.22142857142857 -25.62857142857143 -3.8442857142857143 q 12.814285714285715 7.688571428571429 25.62857142857143 3.8442857142857143 z" fill="#8A9A7B" opacity="0.85"/>
    <path d="M 202.9 476.3 q -12.814285714285715 19.22142857142857 -25.62857142857143 3.8442857142857143 q 12.814285714285715 -7.688571428571429 25.62857142857143 -3.8442857142857143 z" fill="#8A9A7B" opacity="0.62"/>
  </g>
</svg>
